<?xml version="1.0" encoding="UTF-8"?>
<svg xmlns="http://www.w3.org/2000/svg" viewBox="0 0 1200 220" role="img" aria-labelledby="title desc">
  <title id="title">Hi, I'm Alina</title>
  <desc id="desc">I make AI coding agents understand what they change — and prove it. A quiet codegraph flows from context to audit.</desc>
  <defs>
    <linearGradient id="bg" x1="0" y1="0" x2="1" y2="1">
      <stop offset="0" stop-color="#F6F3ED"/>
      <stop offset="0.6" stop-color="#FFFFFF"/>
      <stop offset="1" stop-color="#F6F3ED"/>
    </linearGradient>
    <pattern id="grid" width="36" height="36" patternUnits="userSpaceOnUse">
      <path d="M36 0H0V36" fill="none" stroke="#65717E" stroke-opacity="0.06"/>
    </pattern>
    <style><![CDATA[
      .signal { stroke-dasharray: 5 13; animation: flow 9s linear infinite; }
      @keyframes flow { to { stroke-dashoffset: -180; } }
      @media (prefers-reduced-motion: reduce) { .signal { animation: none; } }
    ]]></style>
  </defs>

  <rect x="5" y="5" width="1190" height="210" rx="16" fill="url(#bg)" stroke="#A7643C" stroke-opacity="0.38"/>
  <rect x="6" y="6" width="1188" height="208" rx="15" fill="url(#grid)"/>

  <g font-family="-apple-system, BlinkMacSystemFont, 'Segoe UI', Helvetica, Arial, sans-serif">
    <text x="54" y="58" fill="#A7643C" font-size="18" font-weight="650" letter-spacing="2.5">HI, I'M ALINA.</text>
    <text x="54" y="105" fill="#18202A" font-size="27" font-weight="650" letter-spacing="0.1">I make AI coding agents understand what they change — and prove it.</text>
  </g>
  <text x="54" y="139" fill="#65717E" font-family="ui-monospace, SFMono-Regular, Menlo, Consolas, monospace" font-size="13" letter-spacing="1.15">Building Mastermind · MCP · code intelligence · evals</text>

  <g fill="none" stroke-linecap="round" stroke-linejoin="round">
    <path d="M54 180H222l32-16h172l32 16h172l32-16h172l32 16h302" stroke="#A7643C" stroke-opacity="0.25" stroke-width="1.4"/>
    <path class="signal" d="M54 180H222l32-16h172l32 16h172l32-16h172l32 16h302" stroke="#A7643C" stroke-opacity="0.65" stroke-width="1.7"/>
  </g>
  <g font-family="ui-monospace, SFMono-Regular, Menlo, Consolas, monospace" font-size="9.5" letter-spacing="1.35" text-anchor="middle">
    <g fill="#2679A8"><circle cx="130" cy="180" r="3.5"/><text x="130" y="202">CONTEXT</text></g>
    <g fill="#A7643C"><circle cx="352" cy="164" r="3.5"/><text x="352" y="153">PLAN</text></g>
    <g fill="#18202A"><circle cx="544" cy="180" r="3.5"/><text x="544" y="202">CHANGE</text></g>
    <g fill="#167C6C"><circle cx="746" cy="164" r="3.5"/><text x="746" y="153">TEST</text></g>
    <g fill="#167C6C"><circle cx="938" cy="180" r="3.5"/><text x="938" y="202">AUDIT</text></g>
  </g>
</svg>
